<svg width="1792" height="1792" viewBox="0 0 1792 1792" xmlns="http://www.w3.org/2000/svg" color="#ffffff">
<path fill="#FFFFFF" d="M1693.997,1028.022V399.547c0-6.547-2.392-12.212-7.176-16.996c-4.784-4.784-10.449-7.176-16.996-7.176H461.218
	c-6.547,0-12.212,2.392-16.996,7.176c-4.784,4.784-7.176,10.449-7.176,16.996v628.476c0,6.547,2.392,12.212,7.176,16.996
	c4.784,4.784,10.449,7.176,16.996,7.176h1208.607c6.547,0,12.212-2.392,16.996-7.176
	C1691.605,1040.234,1693.997,1034.569,1693.997,1028.022z M1790.686,399.547V1221.4c0,33.237-11.834,61.689-35.503,85.358
	c-23.669,23.669-52.121,35.503-85.358,35.503h-410.926c0,18.633,4.029,38.147,12.086,58.542s16.115,38.272,24.172,53.632
	c8.057,15.359,12.086,26.312,12.086,32.859c0,13.093-4.784,24.424-14.352,33.992s-20.899,14.352-33.992,14.352H872.144
	c-13.093,0-24.424-4.784-33.992-14.352c-9.568-9.568-14.352-20.899-14.352-33.992c0-7.05,4.029-18.129,12.086-33.237
	c8.057-15.108,16.115-32.733,24.172-52.877c8.057-20.143,12.086-39.783,12.086-58.92H461.218c-33.237,0-61.689-11.834-85.358-35.503
	s-35.503-52.121-35.503-85.358V399.547c0-33.237,11.834-61.689,35.503-85.358s52.121-35.503,85.358-35.503h1208.607
	c33.237,0,61.689,11.834,85.358,35.503C1778.851,337.858,1790.686,366.31,1790.686,399.547z"/>
<path fill="#FFFFFF" d="M1003.457,742.462c0,5.413-1.933,10.052-5.799,13.919l-222.698,205.3c-6.186,5.413-12.952,6.573-20.298,3.48
	c-7.346-3.48-11.019-9.086-11.019-16.818V818.435H19.873c-5.413,0-9.859-1.74-13.339-5.219c-3.48-3.48-5.219-7.926-5.219-13.339
	V688.527c0-5.413,1.74-9.859,5.219-13.339s7.926-5.219,13.339-5.219h723.77V540.062c0-8.119,3.673-13.725,11.019-16.818
	c7.346-3.093,14.112-2.126,20.298,2.9l222.698,202.98C1001.524,732.99,1003.457,737.436,1003.457,742.462z"/>
</svg>
