<svg width="1792" height="1792" viewBox="0 0 1792 1792" xmlns="http://www.w3.org/2000/svg">
<path fill="#FFFFFF" d="M1269.291,1009.33V420.016c0-6.139-2.243-11.451-6.729-15.937c-4.486-4.486-9.798-6.729-15.937-6.729H113.33
	c-6.139,0-11.451,2.243-15.937,6.729s-6.729,9.798-6.729,15.937v589.314c0,6.139,2.243,11.451,6.729,15.937
	c4.486,4.486,9.798,6.729,15.937,6.729h1133.296c6.139,0,11.451-2.243,15.937-6.729
	C1267.048,1020.781,1269.291,1015.468,1269.291,1009.33z M1359.955,420.016v770.641c0,31.166-11.097,57.845-33.291,80.039
	c-22.194,22.194-48.873,33.291-80.039,33.291H861.305c0,17.472,3.778,35.77,11.333,54.894s15.111,35.888,22.666,50.29
	c7.555,14.402,11.333,24.673,11.333,30.811c0,12.277-4.486,22.902-13.458,31.874c-8.972,8.972-19.597,13.458-31.874,13.458H498.65
	c-12.277,0-22.902-4.486-31.874-13.458c-8.972-8.972-13.458-19.597-13.458-31.874c0-6.611,3.778-16.999,11.333-31.166
	c7.555-14.166,15.111-30.693,22.666-49.582c7.555-18.888,11.333-37.304,11.333-55.248H113.33c-31.166,0-57.845-11.097-80.039-33.291
	S0,1221.823,0,1190.657V420.016c0-31.166,11.097-57.845,33.291-80.039c22.194-22.194,48.873-33.291,80.039-33.291h1133.296
	c31.166,0,57.845,11.097,80.039,33.291C1348.858,362.17,1359.955,388.85,1359.955,420.016z"/>
<path fill="#FFFFFF" d="M1792,741.563c0,5.076-1.813,9.426-5.438,13.051L1577.74,947.122c-5.801,5.076-12.145,6.163-19.033,3.263
	c-6.888-3.263-10.332-8.52-10.332-15.77V812.802h-678.67c-5.076,0-9.245-1.631-12.508-4.894c-3.263-3.263-4.894-7.432-4.894-12.508
	V690.989c0-5.076,1.631-9.245,4.894-12.508c3.263-3.263,7.432-4.894,12.508-4.894h678.67V551.775c0-7.613,3.444-12.87,10.332-15.77
	c6.888-2.9,13.233-1.994,19.033,2.719l208.822,190.332C1790.187,732.681,1792,736.85,1792,741.563z"/>
</svg>
