<?xml version="1.0" encoding="utf-8"?>
<!-- Generator: Adobe Illustrator 17.0.0, SVG Export Plug-In . SVG Version: 6.00 Build 0)  -->
<!DOCTYPE svg PUBLIC "-//W3C//DTD SVG 1.1//EN" "http://www.w3.org/Graphics/SVG/1.1/DTD/svg11.dtd">
<svg version="1.1" id="图层_1" xmlns="http://www.w3.org/2000/svg" xmlns:xlink="http://www.w3.org/1999/xlink" x="0px" y="0px"
	 width="1792px" height="1792px" viewBox="0 0 1792 1792" enable-background="new 0 0 1792 1792" xml:space="preserve">
<path fill="#FFFFFF" d="M1728,992V160c0-8.667-3.167-16.167-9.5-22.5s-13.833-9.5-22.5-9.5H96c-8.667,0-16.167,3.167-22.5,9.5
	S64,151.333,64,160v832c0,8.667,3.167,16.167,9.5,22.5s13.833,9.5,22.5,9.5h1600c8.667,0,16.167-3.167,22.5-9.5
	S1728,1000.667,1728,992z M1856,160v1088c0,44-15.667,81.667-47,113s-69,47-113,47h-544c0,24.667,5.333,50.5,16,77.5
	s21.333,50.667,32,71s16,34.833,16,43.5c0,17.333-6.333,32.333-19,45s-27.667,19-45,19H640c-17.333,0-32.333-6.333-45-19
	s-19-27.667-19-45c0-9.333,5.333-24,16-44s21.333-43.333,32-70s16-52.667,16-78H96c-44,0-81.667-15.667-113-47s-47-69-47-113V160
	c0-44,15.667-81.667,47-113S52,0,96,0h1600c44,0,81.667,15.667,113,47S1856,116,1856,160z"/>
<path fill="#FFFFFF" d="M1405.571,582.895c0,6.837-2.629,12.884-7.888,18.143l-367.595,367.595
	c-5.259,5.259-11.307,7.888-18.143,7.888c-6.837,0-12.884-2.629-18.143-7.888l-39.442-39.442
	c-5.259-5.259-7.888-11.307-7.888-18.143c0-6.836,2.629-12.884,7.888-18.143l310.01-310.01l-310.01-310.01
	c-5.259-5.259-7.888-11.307-7.888-18.143c0-6.837,2.629-12.884,7.888-18.143l39.442-39.442c5.259-5.259,11.307-7.888,18.143-7.888
	c6.836,0,12.884,2.629,18.143,7.888l367.595,367.595C1402.942,570.01,1405.571,576.058,1405.571,582.895z M1708.482,582.895
	c0,6.837-2.629,12.884-7.888,18.143l-367.595,367.595c-5.259,5.259-11.307,7.888-18.143,7.888s-12.884-2.629-18.143-7.888
	l-39.442-39.442c-5.259-5.259-7.888-11.307-7.888-18.143c0-6.836,2.629-12.884,7.888-18.143l310.01-310.01l-310.01-310.01
	c-5.259-5.259-7.888-11.307-7.888-18.143c0-6.837,2.629-12.884,7.888-18.143l39.442-39.442c5.259-5.259,11.307-7.888,18.143-7.888
	s12.884,2.629,18.143,7.888l367.595,367.595C1705.853,570.01,1708.482,576.058,1708.482,582.895z"/>
</svg>
