<?xml version="1.0" encoding="iso-8859-1"?>
<!-- Generator: Adobe Illustrator 16.0.0, SVG Export Plug-In . SVG Version: 6.00 Build 0)  -->
<!DOCTYPE svg PUBLIC "-//W3C//DTD SVG 1.1//EN" "http://www.w3.org/Graphics/SVG/1.1/DTD/svg11.dtd">
<svg xmlns="http://www.w3.org/2000/svg" xmlns:xlink="http://www.w3.org/1999/xlink" version="1.1" id="Capa_1" x="0px" y="0px"
 width="12px" height="12px" viewBox="0 0 49.4 49.4" style="enable-background:new 0 0 49.4 49.4;" xml:space="preserve">
<g>
	<path d="M15.146,1.403c-3.752,1.308-5.884,5.741-4.655,9.682l0.183,0.584c0.936,3.001,3.595,4.94,6.776,4.94   c0.806,0,1.621-0.124,2.425-0.367c0.126-0.038,0.254-0.073,0.381-0.104c0.212-0.052,0.048,0.39-0.398,0.955   c-0.307,0.389-0.602,0.749-0.819,1.014c-3.227,3.803-4.735,7.897-4.483,12.129l0.028,0.747c0.016,0.418,0.08,0.819,0.189,1.2   c0.187,0.646-0.408,2.152-0.999,3.701c-0.439,1.154-0.672,2.418-0.672,3.741c0,5.572,4.152,9.774,9.659,9.774   c5.63,0,9.717-4.131,9.717-9.859c-0.021-1.148-0.206-2.238-0.541-3.249c-0.522-1.573-1.003-3.168-0.8-3.896   c0.119-0.422,0.181-0.875,0.181-1.353l-0.002-0.618c-0.031-1.442,0.494-2.645,1.797-4.129l0.241-0.267   c2.351-2.591,5.903-6.508,5.903-12.488C39.258,7.02,34.351,0,23.572,0C20.691,0,17.778,0.485,15.146,1.403z M22.759,44.9   c-3.072,0-5.159-2.262-5.159-5.274c0-3.13,2.146-5.274,5.159-5.274c3.128,0,5.158,2.145,5.217,5.274   C27.977,42.639,25.946,44.9,22.759,44.9z M29.772,23.28c-2.087,2.376-3.016,4.637-2.956,7.246c0,0,0,0.233,0,0.521   c0,0.288-1.343,0.521-3,0.521h-1.709c-1.657,0-3.013-0.338-3.029-0.754l-0.028-0.752c-0.175-2.957,0.812-5.97,3.419-9.042   c1.856-2.261,3.362-4.173,3.362-6.086c0-2.029-1.333-3.419-4.23-3.477c-0.958,0-2.018,0.174-3.027,0.479   c-1.586,0.48-3.11-0.023-3.604-1.606l-0.184-0.589c-0.493-1.582,0.278-3.543,1.843-4.088c1.92-0.67,4.287-1.153,6.944-1.153   c7.65,0,11.185,4.231,11.185,9.042C34.756,17.947,31.975,20.845,29.772,23.28z" fill="#FFFFFF"/>
</g>

</svg>
