<?xml version="1.0" encoding="utf-8"?>
<!-- Generator: Adobe Illustrator 16.0.0, SVG Export Plug-In . SVG Version: 6.00 Build 0)  -->
<!DOCTYPE svg PUBLIC "-//W3C//DTD SVG 1.1//EN" "http://www.w3.org/Graphics/SVG/1.1/DTD/svg11.dtd">
<svg version="1.1" id="Layer_1" xmlns="http://www.w3.org/2000/svg" xmlns:xlink="http://www.w3.org/1999/xlink" x="0px" y="0px"
	 width="300px" height="300px" viewBox="0 0 300 300" enable-background="new 0 0 300 300" xml:space="preserve">
<g>
	<g>
		<path fill="#82CEF3" d="M182.255,42.264c-9.29,7.946-14.55,16.525-19.716,25.321c-0.816,1.17-1.439,2.304-1.857,3.328
			c-0.766,1.853-0.869,3.401-0.064,4.194c1.709,1.725,6.828-0.607,11.404-5.184c2.979-2.979,4.985-6.166,5.55-8.518
			c0.252-1.059,0.211-1.928-0.162-2.535c0.162-3.725,1.971-7.518,5.807-11.357c45.357-38.098,54.473-44.569,76.95-22.996
			l11.004-11.024C247.219-10.097,228.823,3.152,182.255,42.264z"/>
		<path fill="#00B1EF" d="M10.444,295.305c-3.254,3.257-7.176,4.622-8.778,3.022l0,0c-1.586-1.597-0.248-5.521,3.022-8.791
			l27.854-27.849c3.252-3.265,7.184-4.611,8.771-3.022l0,0c1.598,1.6,0.254,5.534-3.02,8.794L10.444,295.305z"/>
		
			<linearGradient id="SVGID_1_" gradientUnits="userSpaceOnUse" x1="54.0479" y1="-31.1777" x2="-88.8448" y2="-28.9095" gradientTransform="matrix(0.372 0.372 -0.372 0.372 79.0527 236.9463)">
			<stop  offset="0" style="stop-color:#00BCF1"/>
			<stop  offset="0.4929" style="stop-color:#00A0DF"/>
			<stop  offset="0.9887" style="stop-color:#0088CF"/>
		</linearGradient>
		<path fill="url(#SVGID_1_)" d="M179.13,170.223l-1.703-1.701l-45.946-45.969l-1.705-1.683
			c-7.695,7.135-15.49,14.635-23.322,22.467C39.08,210.695-4.656,276.169,8.733,289.577c0.279,0.279,0.623,0.495,0.943,0.727
			c0.254,0.333,0.471,0.675,0.738,0.952c13.399,13.406,78.874-30.339,146.247-97.724
			C164.492,185.717,172.004,177.916,179.13,170.223z"/>
		
			<linearGradient id="SVGID_2_" gradientUnits="userSpaceOnUse" x1="48.1455" y1="-402.9121" x2="-94.7448" y2="-400.644" gradientTransform="matrix(0.372 0.372 -0.372 0.372 79.0527 236.9463)">
			<stop  offset="0" style="stop-color:#00BCF1"/>
			<stop  offset="0.4929" style="stop-color:#00A0DF"/>
			<stop  offset="0.9887" style="stop-color:#0088CF"/>
		</linearGradient>
		<path fill="url(#SVGID_2_)" d="M294.083,7.604c-0.289-0.274-0.598-0.531-0.893-0.793c-0.27-0.297-0.514-0.615-0.807-0.896
			C277.12-9.356,233.724,9.263,156.904,86.07c-11.414,11.431-18.326,22.324-27.162,34.754l0.033,0.046
			c0,0,4.271,34.282,49.354,49.353l0.115,0.088c11.624-8.261,24.032-16.566,34.671-27.228
			C290.737,66.262,309.365,22.885,294.083,7.604z"/>
		
			<linearGradient id="SVGID_3_" gradientUnits="userSpaceOnUse" x1="-21.6689" y1="-401.8389" x2="-271.1765" y2="-401.8388" gradientTransform="matrix(0.372 0.372 -0.372 0.372 79.0527 236.9463)">
			<stop  offset="0" style="stop-color:#00BCF1"/>
			<stop  offset="0.4929" style="stop-color:#00A0DF"/>
			<stop  offset="0.9887" style="stop-color:#0088CF"/>
		</linearGradient>
		<path fill="url(#SVGID_3_)" d="M288.349,11.582l-0.758-0.907c-10.525-10.531-49.854,4.124-125.911,80.18
			c-9.08,9.092-15.096,17.716-22.082,27.711c0,0-1.365,1.937-2.613,3.734c1.131,4.629,5.006,15.565,16.549,25.853L289.292,12.403
			C289.292,12.389,288.349,11.582,288.349,11.582z"/>
		
			<linearGradient id="SVGID_4_" gradientUnits="userSpaceOnUse" x1="-21.665" y1="-24.7925" x2="-271.144" y2="-24.7925" gradientTransform="matrix(0.372 0.372 -0.3854 0.3854 81.3158 234.6832)">
			<stop  offset="0" style="stop-color:#00BCF1"/>
			<stop  offset="0.4929" style="stop-color:#00A0DF"/>
			<stop  offset="0.9887" style="stop-color:#0088CF"/>
		</linearGradient>
		<path fill="url(#SVGID_4_)" d="M131.314,128.603c-5.326,5.073-10.674,10.102-15.832,15.275
			c-33.447,33.436-62.348,67.33-81.406,95.419c-21.763,32.14-21.86,43.772-20.612,45.395c0.088,0.071,0.898,0.632,0.898,0.632
			l0.834,1.063c0,0,0.018,0.037,0.041,0.067l133.36-133.357C139.305,144.617,134.121,135.579,131.314,128.603z"/>
		<path fill="#82CEF3" d="M148.115,95.754c-4.135,4.999-7.77,9.995-11.432,15.178c2.268,9.243,12.412,37.549,52.852,52.088
			c5.156-3.704,10.33-7.527,15.301-11.682C163.918,135.823,151.584,107.686,148.115,95.754z"/>
		<path fill="#82CEF3" d="M8.733,289.577c0.279,0.279,0.623,0.495,0.943,0.727c0.254,0.333,0.471,0.675,0.738,0.952
			c4.969,4.958,17.083,2.065,33.767-6.92c-12.219-8.807-21.712-18.219-29.126-27.38C6.546,273.049,3.88,284.726,8.733,289.577z"/>
		<path fill="#82CEF3" d="M291.171,47.234c1.408-2.81,2.604-5.485,3.625-8.02c-5.42-10.338-15.781-23.585-35.36-33.476
			c-2.498,1.046-5.127,2.281-7.871,3.677C274.97,20.376,286.038,36.106,291.171,47.234z"/>
		<path fill="#C9E5F7" d="M150.797,103.189c-3.879,4.911-7.42,9.938-11.199,15.376c0,0-0.094,0.133-0.244,0.346
			c2.896,6.999,8.258,16.408,18.074,25.356l13.338-13.334C160.09,121.171,154.1,110.959,150.797,103.189z"/>
		<path fill="#C9E5F7" d="M275.829,25.852l5.064-5.055c-3.867-3.729-8.452-7.397-13.944-10.827
			c-2.484,0.843-5.164,1.937-8.047,3.282C265.717,17.173,271.312,21.47,275.829,25.852z"/>
		<path fill="#C9E5F7" d="M19.782,262.501c-7.531,14.854-7.209,21.048-6.318,22.19c0.088,0.071,0.898,0.632,0.898,0.632l0.834,1.063
			c0,0,0.018,0.037,0.041,0.067l14.175-14.188C25.902,269.037,22.705,265.768,19.782,262.501z"/>
		<path fill="#82CEF3" d="M181.403,163.373c10.095-7.109,20.524-14.472,29.423-23.381c76.058-76.053,90.716-115.362,80.167-125.915
			c-0.021,0-0.951-0.802-0.951-0.802l-0.766-0.904c-0.271-0.288-0.59-0.54-0.918-0.77c8.996,11.743-6.836,50.942-80.913,125.015
			c-8.896,8.912-19.338,16.263-29.433,23.383l-4.384,3.121l-0.684,0.29l-0.471,0.521c-7.197,7.785-14.707,15.568-22.287,23.14
			c-32.279,32.275-65.064,60.087-92.324,78.308c-27.158,18.135-39.331,20.398-43.089,19.845c0.066,0.571,0.219,0.939,0.373,1.155
			c0.09,0.076,0.9,0.639,0.9,0.639l0.83,1.063c0,0,0.072,0.089,0.113,0.142c1.607,1.24,13.05,1.378,44.235-19.47
			c27.285-18.214,60.061-46.021,92.342-78.311c7.58-7.571,15.07-15.356,22.269-23.139l0.488-0.513l0.682-0.298L181.403,163.373z"/>
		<g>
			<path fill="#FFFFFF" d="M195.34,147.267c-5.152,4.089-10.474,7.903-15.745,11.628c1.607,0.763,3.291,1.497,5.027,2.21
				c5.231-3.721,10.528-7.536,15.581-11.632C198.549,148.764,196.916,148.023,195.34,147.267z"/>
			<path fill="#FFFFFF" d="M14.774,285.223c0.066,0.571,0.219,0.939,0.373,1.155c0.09,0.076,0.9,0.639,0.9,0.639l0.83,1.063
				c0,0,0.072,0.089,0.113,0.142c1.174,0.907,7.628,1.214,23.212-6.853c-1.316-1.023-2.627-2.06-3.885-3.105
				C23.814,284.651,17.327,285.604,14.774,285.223z"/>
			<path fill="#FFFFFF" d="M285.81,37.739c1.057,1.569,1.998,3.093,2.842,4.59c1.334-2.923,2.408-5.621,3.227-8.119
				c-0.926-1.449-1.939-2.923-3.055-4.413C288.079,32.229,287.077,34.884,285.81,37.739z"/>
		</g>
	</g>
</g>
</svg>
