<svg width="28px" height="28px" viewBox="0 0 28 28" version="1.1" xmlns="http://www.w3.org/2000/svg" xmlns:xlink="http://www.w3.org/1999/xlink">
    <g id="Page-1" stroke="none" stroke-width="1" fill="none" fill-rule="evenodd" opacity="0.0700000003">
        <g id="切图" transform="translate(-230.000000, -62.000000)" fill="#000000">
            <g id="icns_blockly_inside" transform="translate(230.000000, 2.000000)">
                <g id="icn_blockly_motion_inside" transform="translate(0.000000, 60.000000)">
                    <path d="M13.4559792,7.59070938 L8.50398596,7.33118641 C7.65968199,7.28693831 6.90876951,7.77581167 6.57913211,8.50425245 C6.55386427,8.55624164 6.53061318,8.60975416 6.50951038,8.66472885 L4.71580117,13.3375011 C4.32104673,14.3658716 4.83595639,15.5231205 5.86716085,15.9189628 C6.90555469,16.3175648 8.05479681,15.8008325 8.45012287,14.7709729 L9.74349034,11.4016355 L10.6735469,11.4503777 L9.59036813,14.272155 C9.34679498,14.9066847 9.37853642,15.5816754 9.6274926,16.1624607 L9.12587236,17.4692261 L5.18251565,17.9534094 C4.08919243,18.0876526 3.30913773,19.0855863 3.44375089,20.1819225 C3.57930255,21.2859022 4.57508661,22.0580316 5.66999303,21.923594 L10.6379015,21.3136115 C10.8430483,21.2884227 11.0371658,21.2328256 11.2162811,21.151876 C11.7640161,20.9697537 12.2270719,20.5520374 12.4501229,19.9709698 L12.8549537,18.9163494 L13.3248555,19.2333021 L13.7819597,23.5823581 C13.8971013,24.6778577 14.8812692,25.4752099 15.9797878,25.3597509 C17.085965,25.243487 17.8753556,24.2613301 17.7600473,23.1642442 L17.2368597,18.1864467 C17.2290013,18.1116795 17.217095,18.038301 17.2013808,17.9665067 C17.1649854,17.3668413 16.8583221,16.7917837 16.3213386,16.4295838 L14.5711038,15.2490355 L15.362394,13.1876541 L16.8728815,14.1685761 C17.5827199,14.6295506 18.4786451,14.5810224 19.128513,14.1135708 C19.2589591,14.0463778 19.3840456,13.9637044 19.5012351,13.8653707 L23.3354535,10.6480795 C24.1792774,9.94002713 24.2899727,8.67824127 23.5799691,7.83209194 C22.8650155,6.98004341 21.6093489,6.87482405 20.7643031,7.58390169 L17.8470583,10.0317607 L16.2433121,8.99027581 C17.7863774,8.86642723 19,7.57494199 19,6 C19,4.34314575 17.6568542,3 16,3 C14.3431458,3 13,4.34314575 13,6 C13,6.58430146 13.1670431,7.12958793 13.4559792,7.59070938 Z M14,28 C6.2680135,28 0,21.7319865 0,14 C0,6.2680135 6.2680135,0 14,0 C21.7319865,0 28,6.2680135 28,14 C28,21.7319865 21.7319865,28 14,28 Z" id="Combined-Shape"></path>
                </g>
            </g>
        </g>
    </g>
</svg>