<svg width="28px" height="28px" viewBox="0 0 28 28" version="1.1" xmlns="http://www.w3.org/2000/svg" xmlns:xlink="http://www.w3.org/1999/xlink">
	<g id="Page-1" stroke="none" stroke-width="1" fill="none" fill-rule="evenodd" opacity="0.0700000003">
		<g id="切图" transform="translate(-230.000000, -92.000000)" fill="#000000">
			<g id="icns_blockly_inside" transform="translate(230.000000, 2.000000)">
				<g id="icn_blockly_looks_inside" transform="translate(0.000000, 90.000000)">
					<path d="M14,28 C6.2680135,28 0,21.7319865 0,14 C0,6.2680135 6.2680135,0 14,0 C21.7319865,0 28,6.2680135 28,14 C28,21.7319865 21.7319865,28 14,28 Z M6.28445841,14.5282835 L8.0000061,13.6045332 L8.0000061,22.3999939 C8.0000061,22.7313647 8.26863525,22.9999939 8.6000061,22.9999939 L19.3999939,22.9999939 C19.7313647,22.9999939 19.9999939,22.7313647 19.9999939,22.3999939 L19.9999939,13.6045332 L21.7155416,14.5282835 C22.0705413,14.7194359 22.5092759,14.5130323 22.5883484,14.1176697 L23.5883484,9.11766968 C23.6380773,8.86902539 23.5261302,8.61596353 23.3086969,8.4855039 L19.3086969,6.08551 C19.2154478,6.02956068 19.1087461,6.0000061 19,6.0000061 L17,6.0000061 C16.7498933,6.0000061 16.5260208,6.1551498 16.4382025,6.38933204 C16.3699871,6.57123978 16.1962989,6.8800188 15.9060277,7.18964143 C15.4278785,7.69966717 14.8084295,8.0000061 14,8.0000061 C13.1915705,8.0000061 12.5721215,7.69966717 12.0939723,7.18964143 C11.8037011,6.8800188 11.6300129,6.57123978 11.5617975,6.38933204 C11.4739792,6.1551498 11.2501067,6.0000061 11,6.0000061 L9,6.0000061 C8.89125386,6.0000061 8.78455223,6.02956068 8.69130312,6.08551 L4.69130312,8.4855039 C4.47386985,8.61596353 4.36192274,8.86902539 4.41165159,9.11766968 L5.41165159,14.1176697 C5.49072411,14.5130323 5.92945869,14.7194359 6.28445841,14.5282835 Z" id="Combined-Shape"/>
				</g>
			</g>
		</g>
	</g>
</svg>