<svg width="36px" height="36px" viewBox="288 114 36 36" version="1.1" xmlns="http://www.w3.org/2000/svg" xmlns:xlink="http://www.w3.org/1999/xlink">
	<!-- Generator: Sketch 3.7 (28169) - http://www.bohemiancoding.com/sketch -->
	<desc>Created with Sketch.</desc>
	<defs>
		<circle id="path-1" cx="306" cy="132" r="18"/>
		<mask id="mask-2" maskContentUnits="userSpaceOnUse" maskUnits="objectBoundingBox" x="0" y="0" width="36" height="36" fill="white">
			<use xlink:href="#path-1"/>
		</mask>
	</defs>
	<use id="Oval-71-Copy-9" stroke="#5C7DEC" mask="url(#mask-2)" stroke-width="2" fill="#FFFFFF" fill-rule="evenodd" xlink:href="#path-1"/>
	<path d="M315.048453,126 L296.509033,126 C295.678935,126 295,126.680137 295,127.511443 L295,137.444081 C295,138.275301 295.678935,138.955524 296.509033,138.955524 L315.048454,138.955524 C315.878336,138.955524 316.557465,138.275279 316.557465,137.444081 L316.557465,127.511445 C316.557464,126.680158 315.878316,126 315.048453,126 L315.048453,126 Z M306.856603,128.159237 L309.012343,128.159237 L309.012343,130.318646 L306.856602,130.318646 L306.856602,128.159237 L306.856603,128.159237 Z M310.090223,133.557499 L307.934483,133.557499 L307.934483,131.398263 L310.090223,131.398263 L310.090223,133.5575 L310.090223,133.557499 Z M303.623002,128.159237 L305.778742,128.159237 L305.778742,130.318646 L303.623003,130.318646 L303.623003,128.159237 L303.623002,128.159237 Z M306.856603,133.557499 L304.700841,133.557499 L304.700841,131.398263 L306.856603,131.398263 L306.856603,133.5575 L306.856603,133.557499 Z M300.389361,128.159237 L302.545123,128.159237 L302.545123,130.318646 L300.389361,130.318646 L300.389361,128.159237 L300.389361,128.159237 Z M303.623002,133.557499 L301.467241,133.557499 L301.467241,131.398263 L303.623002,131.398263 L303.623002,133.5575 L303.623002,133.557499 Z M297.155739,128.159237 L299.311479,128.159237 L299.311479,130.318646 L297.15574,130.318646 L297.15574,128.159237 L297.155739,128.159237 Z M300.389361,133.557499 L298.2336,133.557499 L298.2336,131.398263 L300.389361,131.398263 L300.389361,133.5575 L300.389361,133.557499 Z M299.31148,136.796332 L297.15574,136.796332 L297.15574,134.63714 L299.31148,134.63714 L299.31148,136.796333 L299.31148,136.796332 Z M311.168104,136.796332 L300.389361,136.796332 L300.389361,134.63714 L311.168104,134.63714 L311.168104,136.796333 L311.168104,136.796332 Z M314.401726,136.796332 L312.245964,136.796332 L312.245964,134.63714 L314.401726,134.63714 L314.401726,136.796333 L314.401726,136.796332 Z M311.168104,131.398264 L313.323866,131.398264 L313.323866,133.557501 L311.168104,133.557501 L311.168104,131.398264 L311.168104,131.398264 Z M314.401726,130.318668 L310.090223,130.318668 L310.090223,128.159237 L314.401725,128.159237 L314.401725,130.318667 L314.401726,130.318668 Z" id="Shape" stroke="none" fill="#5B97FF" fill-rule="evenodd"/>
</svg>
