<svg xmlns="http://www.w3.org/2000/svg">
    <!-- All images created with SVG-edit - http://svg-edit.googlecode.com/ -->























    <g id="logo">
        <svg viewBox="0 0 16 16" version="1.1">
            <path id="svg_7" d="m-0.0965,16.1043l16.10001,-16.06917l-0.00001,16.06917l-16.1,0z" stroke-linecap="null" stroke-linejoin="null" stroke-dasharray="null" stroke-width="1.5" fill="#cccccc"/>
            <path id="svg_6" d="m0.0035,16.10449l0,-15.99999l16,15.99999l-16,0z" stroke-linecap="null" stroke-linejoin="null" stroke-dasharray="null" stroke-width="1.5" fill="#666666"/>
        </svg>
    </g>




    <g id="select_node">
        <svg viewBox="0 0 24 24" version="1.1">
            <g>
                <path fill="none" d="M6.67,5.202l8.314,7.482l-4.158,0.831L6.67,16.841V5.202z"/>
                <polygon fill="#302F2C" points="14.984,12.684 6.67,5.202 6.67,16.841 10.827,13.515 	"/>
                <path fill="#302F2C" d="M0,24h24V0H0V24z M5.008,0.213L20.14,13.515l-4.987,1.663l3.325,6.651l-3.325,1.663l-4.157-6.651
		l-5.988,3.325V0.213z"/>
            </g>
        </svg>
    </g>

    <g id="fh_rect">
        <svg xmlns:xlink="http://www.w3.org/1999/xlink" xmlns="http://www.w3.org/2000/svg" viewBox="0 0 52 52">
            <defs>
                <linearGradient y2="1" x2="1" y1="0.10156" x1="0.36328" id="svg_2">

                    <stop stop-opacity="1" stop-color="#ffffff" offset="0"/>
                    <stop stop-opacity="1" stop-color="#3b7e9b" offset="1"/>
                </linearGradient>
                <linearGradient y2="0.3945" x2="0.6132" y1="0.1093" x1="0.3046" id="svg_9">
                    <stop stop-opacity="1" stop-color="#f9d225" offset="0"/>
                    <stop stop-opacity="1" stop-color="#bf5f00" offset="1"/>
                </linearGradient>
            </defs>
            <rect stroke="#F3F3F3" stroke-width="2" fill="url(#svg_2)" id="svg_1" height="50" width="50" y="0.75" x="1.25"/>
            <path stroke-width="2" stroke="#F3F3F3" fill="url(#svg_9)" id="svg_2" d="m31.5,0l-8.75,20.25l0.75,24l16.5,-16.5l6,-12.5"/>
            <path stroke-width="2" stroke="#F3F3F3" fill="#fce0a9" id="svg_10" d="m39.5,28.5c-2,-9.25 -10.25,-11.75 -17,-7.4375l0.4843,24.4414z"/>
            <path id="svg_11" stroke-width="2" stroke="#F3F3F3" fill="#F3F3F3" d="m26.9318,41.1745c-0.4491,-2.3511 -2.3021,-2.9866 -3.8181,-1.8905l0.1087,6.2126z"/>
        </svg>
    </g>


    <g id="circle">
        <svg id="Untitled-Page%201" viewBox="0 0 27 27" style="background-color:#ffffff00" version="1.1"
	xmlns="http://www.w3.org/2000/svg" xmlns:xlink="http://www.w3.org/1999/xlink" xml:space="preserve"
	x="0px" y="0px" width="27px" height="27px"
>
	<path d="M 27 0 L 13.5 0 C 20.9559 0 27 6.0441 27 13.5 L 27 0 ZM 27 27 L 27 13.5 C 27 20.9559 20.9559 27 13.5 27 L 27 27 ZM 0 27 L 13.5 27 C 6.0441 27 0 20.9559 0 13.5 L 0 27 ZM 0 0 L 0 13.5 C 0 6.0441 6.0441 0 13.5 0 L 0 0 Z" fill="#F3F3F3"/>
</svg>
    </g>

    <g id="fh_ellipse">
        <svg viewBox="0 0 52 52" xmlns="http://www.w3.org/2000/svg" xmlns:xlink="http://www.w3.org/1999/xlink">
            <defs>
                <linearGradient id="svg_9" x1="0.3046" y1="0.1093" x2="0.6132" y2="0.3945">
                    <stop offset="0" stop-color="#f9d225" stop-opacity="1"/>
                    <stop offset="1" stop-color="#bf5f00" stop-opacity="1"/>
                </linearGradient>
                <linearGradient id="svg_4" x1="0.17188" y1="0.1875" x2="1" y2="1">
                    <stop offset="0" stop-color="#ffffff" stop-opacity="1"/>
                    <stop offset="1" stop-color="#ff6666" stop-opacity="1"/>
                </linearGradient>
            </defs>
            <ellipse stroke-width="2" stroke="#F3F3F3" fill="url(#svg_4)" id="svg_1" rx="23" ry="12" cy="37" cx="27"/>
            <path d="m31.5,0l-8.75,20.25l0.75,24l16.5,-16.5l6,-12.5" id="svg_2" fill="url(#svg_9)" stroke="#F3F3F3" stroke-width="2"/>
            <path d="m39.5,28.5c-2,-9.25 -10.25,-11.75 -17,-7.4375l0.4843,24.4414z" id="svg_10" fill="#fce0a9" stroke="#F3F3F3" stroke-width="2"/>
            <path d="m26.9318,41.1745c-0.4491,-2.3511 -2.3021,-2.9866 -3.8181,-1.8905l0.1087,6.2126z" fill="#F3F3F3" stroke="#F3F3F3" stroke-width="2" id="svg_11"/>
        </svg>
    </g>

    <g id="add_subpath">
        <svg xmlns="http://www.w3.org/2000/svg" viewBox="0 0 124 124" xmlns:xlink="http://www.w3.org/1999/xlink">
            <defs>
                <linearGradient id="svg_4" x1="0.33594" y1="0.28125" x2="1" y2="1">
                    <stop offset="0" stop-color="#ffffff" stop-opacity="1"/>
                    <stop offset="1" stop-color="#33a533" stop-opacity="1"/>
                </linearGradient>
            </defs>
            <g>
                <path d="m6,103l55,-87c85,33.64 -26,37.12 55,87l-110,0z" id="svg_1" fill="url(#svg_4)" stroke="#F3F3F3" stroke-width="4" stroke-dasharray="null"/>
                <g id="svg_7">
                    <circle stroke-dasharray="null" stroke-width="5" stroke="#F3F3F3" fill="#ffffff" id="svg_6" r="22.63281" cy="88.5" cx="45.5"/>
                    <line stroke-dasharray="null" stroke-width="7" stroke="#F3F3F3" id="svg_2" y2="104.03768" x2="45.5" y1="72.96232" x1="45.5"/>
                    <line stroke-dasharray="null" stroke-width="7" stroke="#F3F3F3" id="svg_3" y2="88.5" x2="61.03768" y1="88.5" x1="29.96232"/>
                </g>
            </g>
        </svg>
    </g>

    <g id="close_path">
        <svg viewBox="0 0 300 300" xmlns="http://www.w3.org/2000/svg" xmlns:xlink="http://www.w3.org/1999/xlink">
            <g>
                <path stroke="#000" stroke-width="15" fill="#ffc8c8" d="m121.5,40l-84,106l27,115l166,2l29,-111"/>
                <line x1="240" y1="136" x2="169.5" y2="74" stroke="#A00" stroke-width="25" fill="none"/>
                <path stroke="none" fill ="#A00" d="m158,65l31,74l-3,-50l51,-3z"/>
                <g stroke-width="15" stroke="#00f" fill="#0ff">
                    <circle r="30" cy="41" cx="123"/>
                    <circle r="30" cy="146" cx="40"/>
                    <circle r="30" cy="260" cx="69"/>
                    <circle r="30" cy="260" cx="228"/>
                    <circle r="30" cy="148" cx="260"/>
                </g>
            </g>
        </svg>
    </g>

    <g id="open_path">
        <svg viewBox="0 0 300 300" xmlns="http://www.w3.org/2000/svg" xmlns:xlink="http://www.w3.org/1999/xlink">
            <g>
                <path stroke="#000" stroke-width="15" fill="#ffc8c8" d="m123.5,38l-84,106l27,115l166,2l29,-111"/>
                <line x1="276.5" y1="153" x2="108.5" y2="24" stroke="#000" stroke-width="10" fill="none"/>
                <g stroke-width="15" stroke="#00f" fill="#0ff">
                    <circle r="30" cy="41" cx="123"/>
                    <circle r="30" cy="146" cx="40"/>
                    <circle r="30" cy="260" cx="69"/>
                    <circle r="30" cy="260" cx="228"/>
                    <circle r="30" cy="148" cx="260"/>
                </g>
                <g  stroke="#A00" stroke-width="15" fill="none">
                    <line x1="168" y1="24" x2="210" y2="150"/>
                    <line x1="210" y1="24" x2="168" y2="150"/>
                </g>
            </g>
        </svg>
    </g>


    <g id="image">
        <svg id="eye-Page%201" viewBox="0 0 27 27" style="background-color:#ffffff00" version="1.1"
	xmlns="http://www.w3.org/2000/svg" xmlns:xlink="http://www.w3.org/1999/xlink" xml:space="preserve"
	x="0px" y="0px" width="27px" height="27px"
>
	<g id="Layer%201">
			<path fill="#F3F3F3" d="M23.377,8.006H3.624v13.602h19.753V8.006z M19.849,9.676c0.91,0,1.646,0.748,1.646,1.67s-0.736,1.671-1.646,1.671c-0.908,0-1.646-0.749-1.646-1.671S18.94,9.676,19.849,9.676z M5.034,20.175L9.972,9.438l5.173,7.158l2.587-2.147l4.233,5.727H5.034z"/>
			<path fill="#F3F3F3" d="M0,0v27h27V0H0z M25.258,23.517H1.742V6.097h23.516V23.517z"/>
	</g>
</svg>
    </g>

    <g id="arrow_right">
        <svg xmlns:xlink="http://www.w3.org/1999/xlink" xmlns="http://www.w3.org/2000/svg" viewBox="0 0 25 50">
            <path stroke="none" fill="#ccc" d="m0,0l0,50l25,-25l-25,-25z"/>
        </svg>
    </g>

    <g id="arrow_right_big">
        <svg xmlns:xlink="http://www.w3.org/1999/xlink" xmlns="http://www.w3.org/2000/svg" viewBox="0 0 40 50">
            <path stroke="none" fill="#ccc" d="m0,0l0,50l25,-25l-25,-25z"/>
        </svg>
    </g>

    <g id="arrow_down">
        <svg viewBox="0 0 50 40" xmlns="http://www.w3.org/2000/svg" xmlns:xlink="http://www.w3.org/1999/xlink">
            <path transform="rotate(90, 26, 13)" d="m14,-12l0,50l25,-25l-25,-25z" fill="#ccc" stroke="none"/>
        </svg>
    </g>

    <g id="align_left">
        <svg viewBox="0 0 27 27"  version="1.1"
		xmlns="http://www.w3.org/2000/svg" xmlns:xlink="http://www.w3.org/1999/xlink" xml:space="preserve"
		x="0px" y="0px" width="27px" height="27px"
	>
		<path d="M 2 1 L 2 5 L 14 5 L 14 11 L 2 11 L 2 16 L 20 16 L 20 22 L 2 22 L 2 26 L 1 26 L 1 1 L 2 1 ZM 27 0 L 0 0 L 0 27 L 27 27 L 27 0 Z" fill="#5d626d"/>
	</svg>
    </g>

    <g id="align_center">
        <svg viewBox="0 0 27 27" style="background-color:#ffffff00" version="1.1"
		xmlns="http://www.w3.org/2000/svg" xmlns:xlink="http://www.w3.org/1999/xlink" xml:space="preserve"
		x="0px" y="0px" width="27px" height="27px">
			<path d="M 13 1 L 14 1 L 14 6 L 22 6 L 22 12 L 14 12 L 14 15 L 19 15 L 19 21 L 14 21 L 14 26 L 13 26 L 13 21 L 8 21 L 8 15 L 13 15 L 13 12 L 5 12 L 5 6 L 13 6 L 13 1 ZM 0 0 L 0 27 L 27 27 L 27 0 L 0 0 Z" fill="#5d626d"/>

	</svg>
    </g>

    <g id="align_right">
        <svg viewBox="0 0 27 27" style="background-color:#ffffff00" version="1.1"
		xmlns="http://www.w3.org/2000/svg" xmlns:xlink="http://www.w3.org/1999/xlink" xml:space="preserve"
		x="0px" y="0px" width="27px" height="27px"
	>
		<path d="M 25 1 L 25 5 L 13 5 L 13 11 L 25 11 L 25 16 L 7 16 L 7 22 L 25 22 L 25 26 L 26 26 L 26 1 L 25 1 ZM 0 0 L 27 0 L 27 27 L 0 27 L 0 0 Z" fill="#5d626d"/>
	</svg>
    </g>

    <g id="align_top">
        <svg id="Untitled-Page%201" viewBox="0 0 27 27" style="background-color:#ffffff00" version="1.1"
		xmlns="http://www.w3.org/2000/svg" xmlns:xlink="http://www.w3.org/1999/xlink" xml:space="preserve"
		x="0px" y="0px" width="27px" height="27px"
	>
		<path d="M 1 2 L 5 2 L 5 14 L 11 14 L 11 2 L 16 2 L 16 20 L 22 20 L 22 2 L 26 2 L 26 1 L 1 1 L 1 2 ZM 0 27 L 0 0 L 27 0 L 27 27 L 0 27 Z" fill="#5d626d"/>
	</svg>
    </g>

    <g id="align_middle">
        <svg id="Untitled-Page%201" viewBox="0 0 27 27" style="background-color:#ffffff00" version="1.1"
	xmlns="http://www.w3.org/2000/svg" xmlns:xlink="http://www.w3.org/1999/xlink" xml:space="preserve"
	x="0px" y="0px" width="27px" height="27px"
>
	<path d="M 26 13 L 26 14 L 21 14 L 21 22 L 15 22 L 15 14 L 12 14 L 12 19 L 6 19 L 6 14 L 1 14 L 1 13 L 6 13 L 6 8 L 12 8 L 12 13 L 15 13 L 15 5 L 21 5 L 21 13 L 26 13 ZM 27 0 L 0 0 L 0 27 L 27 27 L 27 0 Z" fill="#5d626d"/>
</svg>
    </g>

    <g id="align_bottom">
        <svg id="Untitled-Page%201" viewBox="0 0 27 27" style="background-color:#ffffff00" version="1.1"
	xmlns="http://www.w3.org/2000/svg" xmlns:xlink="http://www.w3.org/1999/xlink" xml:space="preserve"
	x="0px" y="0px" width="27px" height="27px"
>
	<path d="M 1 25 L 5 25 L 5 13 L 11 13 L 11 25 L 16 25 L 16 7 L 22 7 L 22 25 L 26 25 L 26 26 L 1 26 L 1 25 ZM 0 0 L 0 27 L 27 27 L 27 0 L 0 0 Z" fill="#5d626d"/>
</svg>
    </g>

    <g id="linecap_butt">
        <svg width="100" height="100" xmlns="http://www.w3.org/2000/svg" xmlns:se="http://svg-edit.googlecode.com" xmlns:xlink="http://www.w3.org/1999/xlink">
            <!-- Created with SVG-edit - http://svg-edit.googlecode.com/ -->
            <defs>
                <linearGradient id="svg_8" x1="0.8" y1="1" x2="0.2" y2="1">
                    <stop offset="0" stop-color="#F3F3F3" stop-opacity="1"/>
                    <stop offset="1" stop-color="#F3F3F3" stop-opacity="0"/>
                </linearGradient>
            </defs>
            <g>
                <rect fill="url(#svg_8)" stroke="#a0a0a0" stroke-width="2" x="-15.20196" y="43.5974" width="94.8373" height="50.3728" id="svg_3" transform="rotate(-45, 32.2148, 68.7832)"/>
                <path id="svg_1" d="m6.63133,95.07755l59.17514,-59.17514" stroke-width="3" stroke="#00ffff" fill="none"/>
                <path id="svg_2" d="m51.62893,36.10742l13.05662,-13.05662l13.05661,13.05662l-13.05661,13.05662l-13.05662,-13.05662z" stroke="none" fill="#00ffff"/>
            </g>
        </svg>
    </g>

    <g id="linecap_square">
        <svg width="100" height="100" xmlns="http://www.w3.org/2000/svg" xmlns:se="http://svg-edit.googlecode.com" xmlns:xlink="http://www.w3.org/1999/xlink">
            <!-- Created with SVG-edit - http://svg-edit.googlecode.com/ -->
            <defs>
                <linearGradient id="svg_8" x1="0.8" y1="1" x2="0.2" y2="1">
                    <stop offset="0" stop-color="#F3F3F3" stop-opacity="1"/>
                    <stop offset="1" stop-color="#F3F3F3" stop-opacity="0"/>
                </linearGradient>
            </defs>
            <g>
                <rect fill="url(#svg_8)" stroke="none" x="-18.51568" y="35.5974" width="117.46469" height="50.3728" id="svg_3" transform="rotate(-45, 40.2168, 60.7832)"/>
                <path id="svg_1" d="m6.63133,95.07755l59.17514,-59.17514" stroke-width="3" stroke="#00ffff" fill="none"/>
                <path id="svg_2" d="m51.62893,36.10742l13.05662,-13.05662l13.05661,13.05662l-13.05661,13.05662l-13.05662,-13.05662z" stroke="none" fill="#00ffff"/>
            </g>
        </svg>
    </g>

    <g id="linecap_round">
        <svg width="100" height="100" xmlns="http://www.w3.org/2000/svg" xmlns:xlink="http://www.w3.org/1999/xlink" xmlns:se="http://svg-edit.googlecode.com">
            <!-- Created with SVG-edit - http://svg-edit.googlecode.com/ -->
            <defs>
                <linearGradient y2="1" x2="0.2" y1="1" x1="0.8" id="svg_8">
                    <stop stop-opacity="1" stop-color="#F3F3F3" offset="0"/>
                    <stop stop-opacity="0" stop-color="#F3F3F3" offset="1"/>
                </linearGradient>
            </defs>
            <g>
                <path transform="rotate(-45, 41.5117, 59.4648)" id="svg_3" d="m-19.0679,34.2946l94.8359,0c36.499,-1.4142 33.67101,48.9569 0,50.3711l-94.8359,0l0,-50.3711z" stroke-width="2" stroke="#a0a0a0" fill="url(#svg_8)"/>
                <path id="svg_1" d="m6.63133,95.07755l59.17515,-59.17515" stroke-width="3" stroke="#00ffff" fill="none"/>
                <path id="svg_2" d="m51.62893,36.10742l13.05662,-13.05662l13.05661,13.05662l-13.05661,13.05662l-13.05662,-13.05662z" stroke="none" fill="#00ffff"/>
            </g>
        </svg>
    </g>

    <g id="linejoin_miter">
        <svg width="100" height="100" xmlns="http://www.w3.org/2000/svg" xmlns:xlink="http://www.w3.org/1999/xlink" xmlns:se="http://svg-edit.googlecode.com">
            <!-- Created with SVG-edit - http://svg-edit.googlecode.com/ -->
            <defs>
                <linearGradient y2="1" x2="0.2" y1="1" x1="0.8" id="svg_8">
                    <stop stop-opacity="1" stop-color="#F3F3F3" offset="0"/>
                    <stop stop-opacity="0" stop-color="#F3F3F3" offset="1"/>
                </linearGradient>
            </defs>
            <g>
                <path fill="none" stroke="url(#svg_8)" stroke-width="49" d="m-15,-35l75,85l-75,75" id="svg_6"/>
                <path transform="rotate(90, 57.8925, 50.2519)" fill="#00ffff" stroke="none" d="m44.83592,50.25187l13.05661,-13.05663l13.05661,13.05663l-13.05661,13.05662l-13.05661,-13.05662z" id="svg_2"/>
                <path id="svg_4" d="m-15,-35l75,85l-75,75" stroke-width="3" stroke="#00ffff" fill="none"/>
            </g>
        </svg>
    </g>

    <g id="linejoin_bevel">
        <svg width="100" height="100" xmlns="http://www.w3.org/2000/svg" xmlns:xlink="http://www.w3.org/1999/xlink" xmlns:se="http://svg-edit.googlecode.com">
            <!-- Created with SVG-edit - http://svg-edit.googlecode.com/ -->
            <defs>
                <linearGradient y2="1" x2="0.2" y1="1" x1="0.8" id="svg_8">
                    <stop stop-opacity="1" stop-color="#F3F3F3" offset="0"/>
                    <stop stop-opacity="0" stop-color="#F3F3F3" offset="1"/>
                </linearGradient>
            </defs>
            <g>
                <path stroke-linejoin="bevel" fill="none" stroke="url(#svg_8)" stroke-width="49" d="m-15,-35l75,85l-75,75" id="svg_6"/>
                <path transform="rotate(90, 57.8925, 50.2519)" fill="#00ffff" stroke="none" d="m44.83592,50.25187l13.05661,-13.05663l13.05661,13.05663l-13.05661,13.05662l-13.05661,-13.05662z" id="svg_2"/>
                <path id="svg_4" d="m-15,-35l75,85l-75,75" stroke-width="3" stroke="#00ffff" fill="none"/>
            </g>
        </svg>
    </g>

    <g id="linejoin_round">
        <svg width="100" height="100" xmlns="http://www.w3.org/2000/svg" xmlns:xlink="http://www.w3.org/1999/xlink" xmlns:se="http://svg-edit.googlecode.com">
            <!-- Created with SVG-edit - http://svg-edit.googlecode.com/ -->
            <defs>
                <linearGradient y2="1" x2="0.2" y1="1" x1="0.8" id="svg_8">
                    <stop stop-opacity="1" stop-color="#F3F3F3" offset="0"/>
                    <stop stop-opacity="0" stop-color="#F3F3F3" offset="1"/>
                </linearGradient>
            </defs>
            <g>
                <path stroke-linejoin="round" fill="none" stroke="url(#svg_8)" stroke-width="49" d="m-15,-35l75,85l-75,75" id="svg_6"/>
                <path transform="rotate(90, 57.8925, 50.2519)" fill="#00ffff" stroke="none" d="m44.83592,50.25187l13.05661,-13.05663l13.05661,13.05663l-13.05661,13.05662l-13.05661,-13.05662z" id="svg_2"/>
                <path id="svg_4" d="m-15,-35l75,85l-75,75" stroke-width="3" stroke="#00ffff" fill="none"/>
            </g>
        </svg>
    </g>


    <g id="no_color">
        <svg xmlns:xlink="http://www.w3.org/1999/xlink" xmlns="http://www.w3.org/2000/svg" viewBox="0 0 24 24">
            <line fill="none" stroke="#d40000" id="svg_90" y2="24" x2="24" y1="0" x1="0"/>
            <line id="svg_92" fill="none" stroke="#d40000" y2="24" x2="0" y1="0" x1="24"/>
        </svg>
    </g>


    <g id="node_delete">
        <svg width="24" height="24" xmlns="http://www.w3.org/2000/svg">
            <path stroke-width="2" id="svg_102" d="m4.1953,19.42128c15.49391,-15.53349 -0.21065,0.1581 15.61084,-15.57944" stroke="#8dd35f" fill="none"/>
            <circle stroke-width="0.5" id="svg_121" stroke="#0000ff" fill="#00ffff" r="2.26172" cy="4" cx="19.75"/>
            <circle id="svg_123" stroke-width="0.5" stroke="#0000ff" fill="#00ffff" r="2.26172" cy="19.40299" cx="4.0653"/>
            <circle id="svg_7" stroke-width="0.5" stroke="#0000ff" fill="#00ffff" r="2.26172" cy="11.625" cx="11.9375"/>
            <g transform="rotate(-45.291072845458984 9.81157112121582,9.244086265563965) " id="svg_6">
                <line stroke-linecap="round" id="svg_4" y2="9.45264" x2="15.14996" y1="9.3943" x1="4.47318" stroke-dasharray="null" stroke-width="2" stroke="#ff0000" fill="none"/>
                <line stroke-linecap="round" id="svg_5" y2="14.46579" x2="9.66571" y1="4.02238" x1="9.7824" stroke-dasharray="null" stroke-width="2" stroke="#ff0000" fill="none"/>
            </g>
        </svg>
    </g>

    <g id="node_clone">
        <svg width="24" height="24" xmlns="http://www.w3.org/2000/svg">
            <path stroke-width="2" id="svg_102" d="m4.1953,19.42128c15.49391,-15.53349 -0.21065,0.1581 15.61084,-15.57944" stroke="#8dd35f" fill="none"/>
            <circle stroke-width="0.5" id="svg_121" stroke="#0000ff" fill="#00ffff" r="2.26172" cy="4" cx="19.75"/>
            <circle id="svg_123" stroke-width="0.5" stroke="#0000ff" fill="#00ffff" r="2.26172" cy="19.40299" cx="4.0653"/>
            <circle id="svg_7" stroke-width="0.5" stroke="#0000ff" fill="#00ffff" r="2.26172" cy="11.625" cx="11.9375"/>
            <line stroke-linecap="round" id="svg_5" y2="14.46579" x2="9.66571" y1="4.02238" x1="9.7824" stroke-dasharray="null" stroke-width="2" stroke="#0000ff" fill="#0000ff"/>
            <line stroke-linecap="round" id="svg_4" y2="9.45264" x2="15.14996" y1="9.3943" x1="4.47318" stroke-dasharray="null" stroke-width="2" stroke="#0000ff" fill="#0000ff"/>
        </svg>
    </g>



    <g id="svg_eof"/>

</svg>
